<svg width="1920" height="1138" viewBox="0 0 1920 1138" fill="none" xmlns="http://www.w3.org/2000/svg">
<g opacity="0.4">
<mask id="mask0_208_1566" style="mask-type:alpha" maskUnits="userSpaceOnUse" x="-589" y="-110" width="1840" height="1655">
<path d="M531.337 611.888C283.505 618.399 -329.372 1313.19 -390.115 1545L-588.024 752.631L1112.33 -109.51C1261.66 144.365 1265.07 562.423 1236.25 551.445C1200.22 537.724 779.17 605.376 531.337 611.888Z" fill="#C4C4C4"/>
</mask>
<g mask="url(#mask0_208_1566)">
<mask id="mask1_208_1566" style="mask-type:alpha" maskUnits="userSpaceOnUse" x="-830" y="228" width="2462" height="1396">
<path d="M1631.95 694.94L-11.1415 1589.65L-829.58 1623.5L163.78 457.673L1060.41 228.322L1631.95 694.94Z" fill="black"/>
</mask>
<g mask="url(#mask1_208_1566)">
<mask id="mask2_208_1566" style="mask-type:alpha" maskUnits="userSpaceOnUse" x="-886" y="-20" width="2615" height="1925">
<path d="M-885.506 760.376L-375.2 1904.46L1728.39 800.9C1689.1 526.811 1607.09 -20.9994 1593.4 -19.5262C1579.71 -18.0531 -64.909 501.022 -885.506 760.376Z" fill="url(#paint0_linear_208_1566)"/>
</mask>
<g mask="url(#mask2_208_1566)">
<mask id="mask3_208_1566" style="mask-type:alpha" maskUnits="userSpaceOnUse" x="-688" y="-144" width="2445" height="1803">
<path d="M-431.719 1658.82C-540.758 1316.42 -679.737 879.572 -687.515 863.6L1500.31 -143.128L1756.1 652.094L-431.719 1658.82Z" fill="url(#paint1_linear_208_1566)"/>
</mask>
<g mask="url(#mask3_208_1566)">
<path d="M320.528 551.328C492.316 472.28 676.145 528.289 711.463 638.086C746.781 747.883 723.59 923.971 539.276 1008.78C447.939 1050.81 360.649 1175.24 234.545 1170.5C106.177 1165.67 83.1254 1004.36 65.3092 948.972C29.9911 839.175 148.739 630.377 320.528 551.328Z" fill="#0085FF"/>
<g filter="url(#filter0_f_208_1566)">
<path d="M320.615 553.43C518.011 462.598 703.01 533.536 742.214 655.413C781.417 777.289 758.389 971.501 560.994 1062.33C463.174 1107.34 371.63 1246.64 235.89 1239.42C97.7116 1232.08 71.1436 1053.48 51.3673 991.995C12.1638 870.118 123.219 644.262 320.615 553.43Z" fill="#0085FF"/>
</g>
<g filter="url(#filter1_f_208_1566)">
<path d="M332.889 568.925C405.023 480.451 775.531 513.366 812.739 629.04C849.948 744.714 810.563 937.107 576.754 1044.69C460.891 1098.01 349.518 1253.85 193.334 1259.59C34.3432 1265.43 12.3115 1083.22 -6.45837 1024.87C-43.6668 909.196 182.797 571.167 332.889 568.925Z" fill="#0085FF"/>
</g>
<g filter="url(#filter2_f_208_1566)">
<path d="M369.99 604.496C633.652 514.274 890.912 560.351 932.492 689.617C974.073 818.883 889.624 1018.17 641.973 1132.13C519.25 1188.6 406.806 1402.08 240.294 1404.8C70.7917 1407.57 47.8307 1215.74 26.8554 1150.53C-14.7251 1021.26 64.5516 709.014 369.99 604.496Z" fill="#0085FF"/>
</g>
<g filter="url(#filter3_f_208_1566)">
<path d="M507.214 544.518C697.931 520.582 1138.14 507.986 1180.97 641.131C1223.8 774.275 583.116 1167.9 316.461 1290.6C184.321 1351.41 40.2221 1476.05 -138.099 1481.98C-319.625 1488.03 -193.651 1239.18 -100.545 1030.2C23.0933 752.682 298.984 520.238 507.214 544.518Z" fill="#0085FF"/>
</g>
<g filter="url(#filter4_f_208_1566)">
<path d="M346.034 659.516C621.597 532.716 1241.41 568.554 1285.22 704.735C1329.02 840.915 828.214 1138.14 552.651 1264.94C416.096 1327.77 85.2098 1604.98 -98.8429 1611.82C-286.202 1618.79 -227.72 1472.34 -249.818 1403.64C-293.622 1267.46 70.4705 786.317 346.034 659.516Z" fill="#0085FF"/>
</g>
<g filter="url(#filter5_f_208_1566)">
<path d="M346.034 659.516C621.597 532.716 1241.41 568.554 1285.22 704.735C1329.02 840.915 828.214 1138.14 552.651 1264.94C416.096 1327.77 85.2098 1604.98 -98.8429 1611.82C-286.202 1618.79 -227.72 1472.34 -249.818 1403.64C-293.622 1267.46 70.4705 786.317 346.034 659.516Z" fill="#0085FF"/>
</g>
<g filter="url(#filter6_f_208_1566)">
<path d="M346.034 659.516C621.597 532.716 1241.41 568.554 1285.22 704.735C1329.02 840.915 828.214 1138.14 552.651 1264.94C416.096 1327.77 85.2098 1604.98 -98.8429 1611.82C-286.202 1618.79 -227.72 1472.34 -249.818 1403.64C-293.622 1267.46 70.4705 786.317 346.034 659.516Z" fill="#0085FF"/>
</g>
<g filter="url(#filter7_f_208_1566)">
<path d="M346.034 659.516C621.597 532.716 1241.41 568.554 1285.22 704.735C1329.02 840.915 828.214 1138.14 552.651 1264.94C416.096 1327.77 85.2098 1604.98 -98.8429 1611.82C-286.202 1618.79 -227.72 1472.34 -249.818 1403.64C-293.622 1267.46 70.4705 786.317 346.034 659.516Z" fill="#0085FF"/>
</g>
<g filter="url(#filter8_f_208_1566)">
<path d="M325.522 551.174C566.64 440.223 831.941 524.162 875.746 660.343C919.55 796.523 840.919 1001.71 599.801 1112.66C480.315 1167.65 303.819 1287.64 140.047 1285.15C-26.6684 1282.61 -20.1669 1108.25 -42.2642 1039.55C-86.0688 903.373 84.4037 662.124 325.522 551.174Z" fill="#0085FF"/>
</g>
</g>
</g>
</g>
</g>
<mask id="mask4_208_1566" style="mask-type:alpha" maskUnits="userSpaceOnUse" x="-9" y="-445" width="1889" height="1770">
<path d="M1069.31 245.54C1020.3 488.566 230.519 972.922 -8.27734 992.924L738.29 1324.06L1879.82 -202.831C1655.38 -393.569 1244.13 -468.773 1249.99 -438.494C1257.32 -400.646 1118.31 2.51396 1069.31 245.54Z" fill="#C4C4C4"/>
</mask>
<g mask="url(#mask4_208_1566)">
<mask id="mask5_208_1566" style="mask-type:alpha" maskUnits="userSpaceOnUse" x="-360" y="-967" width="2234" height="2583">
<path d="M679.535 1615.79L-359.83 916.455L1088.82 -966.19C1352.08 -880.376 1877.65 -705.44 1873.84 -692.207C1870.04 -678.975 1076.05 851.968 679.535 1615.79Z" fill="url(#paint2_linear_208_1566)"/>
</mask>
<g mask="url(#mask5_208_1566)">
<mask id="mask6_208_1566" style="mask-type:alpha" maskUnits="userSpaceOnUse" x="-128" y="-968" width="2108" height="2371">
<path d="M-127.559 1014.35C191.011 1180.61 597.475 1392.59 611.873 1403L1979.61 -579.264L1240.18 -967.917L-127.559 1014.35Z" fill="url(#paint3_linear_208_1566)"/>
</mask>
<g mask="url(#mask6_208_1566)">
<path d="M1092.74 463.619C1200.13 307.971 1176.55 117.251 1074.45 63.5897C972.359 9.92794 794.905 2.51308 679.679 169.51C622.579 252.265 485.002 316.873 468.003 441.915C450.699 569.204 605.646 619.634 657.147 646.703C759.241 700.365 985.341 619.266 1092.74 463.619Z" fill="#0500FF"/>
<g filter="url(#filter9_f_208_1566)">
<path d="M1090.68 463.171C1214.08 284.322 1175.99 89.8838 1062.67 30.3184C949.342 -29.2469 754.062 -39.9373 630.659 138.912C569.506 227.54 416.553 293.784 400.332 428.745C383.821 566.129 555.201 622.996 612.368 653.044C725.694 712.609 967.276 642.02 1090.68 463.171Z" fill="#0500FF"/>
</g>
<g filter="url(#filter10_f_208_1566)">
<path d="M1077.52 448.418C1177.08 392.561 1208.33 21.9092 1100.77 -34.6247C993.21 -91.1586 796.911 -85.4233 650.743 126.417C578.31 231.395 405.646 314.328 373.151 467.203C340.072 622.824 515.786 675.841 570.044 704.36C677.603 760.894 1049.52 595.891 1077.52 448.418Z" fill="#0500FF"/>
</g>
<g filter="url(#filter11_f_208_1566)">
<path d="M1048.86 405.755C1183.05 161.52 1181.87 -99.8301 1061.67 -163.007C941.476 -226.184 730.641 -177.239 575.82 47.1432C499.098 158.336 269.471 232.419 238.175 395.986C206.316 562.491 391.349 618.077 451.982 649.947C572.179 713.124 893.405 688.688 1048.86 405.755Z" fill="#0500FF"/>
</g>
<g filter="url(#filter12_f_208_1566)">
<path d="M1131.53 280.88C1187.88 97.1137 1275.94 -334.382 1152.14 -399.454C1028.34 -464.527 530.464 98.9764 363.762 340.578C281.153 460.303 133.602 580.837 97.1074 755.485C59.9569 933.271 326.752 851.938 548.628 796.131C843.262 722.025 1119.66 490.185 1131.53 280.88Z" fill="#0500FF"/>
</g>
<g filter="url(#filter13_f_208_1566)">
<path d="M990.54 419.899C1162.81 170.227 1234.02 -446.524 1107.4 -513.08C980.771 -579.636 601.906 -137.36 429.635 112.312C344.267 236.037 14.3156 514.36 -24.0524 694.499C-63.1096 877.875 91.2069 845.43 155.084 879.004C281.71 945.561 818.269 669.572 990.54 419.899Z" fill="#0500FF"/>
</g>
<g filter="url(#filter14_f_208_1566)">
<path d="M990.54 419.899C1162.81 170.227 1234.02 -446.524 1107.4 -513.08C980.771 -579.636 601.906 -137.36 429.635 112.312C344.267 236.037 14.3156 514.36 -24.0524 694.499C-63.1096 877.875 91.2069 845.43 155.084 879.004C281.71 945.561 818.269 669.572 990.54 419.899Z" fill="#0500FF"/>
</g>
<g filter="url(#filter15_f_208_1566)">
<path d="M990.54 419.899C1162.81 170.227 1234.02 -446.524 1107.4 -513.08C980.771 -579.636 601.906 -137.36 429.635 112.312C344.267 236.037 14.3156 514.36 -24.0524 694.499C-63.1096 877.875 91.2069 845.43 155.084 879.004C281.71 945.561 818.269 669.572 990.54 419.899Z" fill="#0500FF"/>
</g>
<g filter="url(#filter16_f_208_1566)">
<path d="M990.54 419.899C1162.81 170.227 1234.02 -446.524 1107.4 -513.08C980.771 -579.636 601.906 -137.36 429.635 112.312C344.267 236.037 14.3156 514.36 -24.0524 694.499C-63.1096 877.875 91.2069 845.43 155.084 879.004C281.71 945.561 818.269 669.572 990.54 419.899Z" fill="#0500FF"/>
</g>
<g filter="url(#filter17_f_208_1566)">
<path d="M1093.75 458.725C1244.48 240.262 1207.39 -35.5174 1080.76 -102.074C954.133 -168.63 738.482 -126.431 587.745 92.0321C513.047 200.291 364.508 353.54 338.818 515.305C312.667 679.975 485.55 703.535 549.427 737.109C676.053 803.665 943.009 677.189 1093.75 458.725Z" fill="#0500FF"/>
</g>
</g>
</g>
</g>
<mask id="mask7_208_1566" style="mask-type:alpha" maskUnits="userSpaceOnUse" x="345" y="-529" width="2215" height="1561">
<path d="M1276.95 417.193C1395.48 194.364 2317.15 15.0844 2559.41 86.5714L1915.42 -528.254L345.11 552.771C512.441 828.249 898.065 1060.36 900.982 1028.02C904.628 987.596 1158.41 640.022 1276.95 417.193Z" fill="#C4C4C4"/>
</mask>
<g mask="url(#mask7_208_1566)">
<mask id="mask8_208_1566" style="mask-type:alpha" maskUnits="userSpaceOnUse" x="176" y="-808" width="2632" height="2316">
<path d="M2046.52 -807.175L2807.26 188.119L832.092 1507.84C610.167 1342.25 168.278 1008.25 176.118 996.932C183.959 985.614 1426.32 -210.522 2046.52 -807.175Z" fill="url(#paint4_linear_208_1566)"/>
</mask>
<g mask="url(#mask8_208_1566)">
<mask id="mask9_208_1566" style="mask-type:alpha" maskUnits="userSpaceOnUse" x="112" y="-584" width="2507" height="2046">
<path d="M2618.56 21.0131C2369.99 -238.493 2052.8 -569.459 2042.49 -583.928L112.083 856.07L688.152 1461.01L2618.56 21.0131Z" fill="url(#paint5_linear_208_1566)"/>
</mask>
<g mask="url(#mask9_208_1566)">
<g filter="url(#filter18_f_208_1566)">
<path d="M1309.22 220.907C1103.89 409.321 1021.33 657.291 1114.97 755.626C1208.61 853.961 1424.02 875.097 1642.53 712.097C1750.82 631.322 1992.08 634.659 2074.1 489.724C2157.59 342.184 2000.09 230.281 1952.86 180.675C1859.21 82.3404 1547.07 2.6415 1309.22 220.907Z" fill="#16C1ED"/>
</g>
<g filter="url(#filter19_f_208_1566)">
<path d="M1190.92 312.74C1078.69 468.79 857.113 849.376 953.564 950.661C1050.02 1051.95 1702.1 677.514 1937.38 502.005C2053.97 415.031 2232.35 348.084 2322.84 194.314C2414.96 37.7824 2136.17 29.413 1908.1 11.2426C1605.25 -12.8864 1269.17 118.253 1190.92 312.74Z" fill="#4DD8FC"/>
</g>
<g filter="url(#filter20_f_208_1566)">
<path d="M1368.99 226.18C1125.85 407.552 860.921 969.036 959.571 1072.63C1058.22 1176.23 1558.75 878.535 1801.89 697.162C1922.38 607.284 2324.07 449.254 2418.1 290.882C2513.81 129.665 2357.23 110.994 2307.46 58.7349C2208.81 -44.8601 1612.13 44.8072 1368.99 226.18Z" fill="#32CEF5"/>
</g>
<g filter="url(#filter21_f_208_1566)">
<path d="M1368.99 226.18C1125.85 407.552 860.921 969.036 959.571 1072.63C1058.22 1176.23 1558.75 878.535 1801.89 697.162C1922.38 607.284 2324.07 449.254 2418.1 290.882C2513.81 129.665 2357.23 110.994 2307.46 58.7349C2208.81 -44.8601 1612.13 44.8072 1368.99 226.18Z" fill="#32CEF5"/>
</g>
<g filter="url(#filter22_f_208_1566)">
<path d="M1368.99 226.18C1125.85 407.552 860.921 969.036 959.571 1072.63C1058.22 1176.23 1558.75 878.535 1801.89 697.162C1922.38 607.284 2324.07 449.254 2418.1 290.882C2513.81 129.665 2357.23 110.994 2307.46 58.7349C2208.81 -44.8601 1612.13 44.8072 1368.99 226.18Z" fill="#32CEF5"/>
</g>
<g filter="url(#filter23_f_208_1566)">
<path d="M1368.99 226.18C1125.85 407.552 860.921 969.036 959.571 1072.63C1058.22 1176.23 1558.75 878.535 1801.89 697.162C1922.38 607.284 2324.07 449.254 2418.1 290.882C2513.81 129.665 2357.23 110.994 2307.46 58.7349C2208.81 -44.8601 1612.13 44.8072 1368.99 226.18Z" fill="#3FD3F7"/>
</g>
<g filter="url(#filter24_f_208_1566)">
<path d="M1307.69 195.346C1094.95 354.047 1041.79 627.186 1140.44 730.782C1239.09 834.377 1456.91 863.446 1669.65 704.745C1775.08 626.101 1964.87 528.478 2041 383.454C2118.5 235.825 1962.26 158.153 1912.49 105.894C1813.84 2.29919 1520.44 36.6451 1307.69 195.346Z" fill="#4DD8FB"/>
</g>
</g>
</g>
</g>
</g>
<defs>
<filter id="filter0_f_208_1566" x="38.6995" y="507.436" width="724.355" height="737.105" filterUnits="userSpaceOnUse" color-interpolation-filters="sRGB">
<feFlood flood-opacity="0" result="BackgroundImageFix"/>
<feBlend mode="normal" in="SourceGraphic" in2="BackgroundImageFix" result="shape"/>
<feGaussianBlur stdDeviation="2.42419" result="effect1_foregroundBlur_208_1566"/>
</filter>
<filter id="filter1_f_208_1566" x="-27.4937" y="501.538" width="869.419" height="775.159" filterUnits="userSpaceOnUse" color-interpolation-filters="sRGB">
<feFlood flood-opacity="0" result="BackgroundImageFix"/>
<feBlend mode="normal" in="SourceGraphic" in2="BackgroundImageFix" result="shape"/>
<feGaussianBlur stdDeviation="8.48466" result="effect1_foregroundBlur_208_1566"/>
</filter>
<filter id="filter2_f_208_1566" x="-7.63252" y="533.323" width="974.495" height="895.747" filterUnits="userSpaceOnUse" color-interpolation-filters="sRGB">
<feFlood flood-opacity="0" result="BackgroundImageFix"/>
<feBlend mode="normal" in="SourceGraphic" in2="BackgroundImageFix" result="shape"/>
<feGaussianBlur stdDeviation="12.1209" result="effect1_foregroundBlur_208_1566"/>
</filter>
<filter id="filter3_f_208_1566" x="-295.998" y="463.859" width="1544.47" height="1083.69" filterUnits="userSpaceOnUse" color-interpolation-filters="sRGB">
<feFlood flood-opacity="0" result="BackgroundImageFix"/>
<feBlend mode="normal" in="SourceGraphic" in2="BackgroundImageFix" result="shape"/>
<feGaussianBlur stdDeviation="32.7266" result="effect1_foregroundBlur_208_1566"/>
</filter>
<filter id="filter4_f_208_1566" x="-437.133" y="397.487" width="1908.75" height="1398.28" filterUnits="userSpaceOnUse" color-interpolation-filters="sRGB">
<feFlood flood-opacity="0" result="BackgroundImageFix"/>
<feBlend mode="normal" in="SourceGraphic" in2="BackgroundImageFix" result="shape"/>
<feGaussianBlur stdDeviation="91.8532" result="effect1_foregroundBlur_208_1566"/>
</filter>
<filter id="filter5_f_208_1566" x="-437.133" y="397.487" width="1908.75" height="1398.28" filterUnits="userSpaceOnUse" color-interpolation-filters="sRGB">
<feFlood flood-opacity="0" result="BackgroundImageFix"/>
<feBlend mode="normal" in="SourceGraphic" in2="BackgroundImageFix" result="shape"/>
<feGaussianBlur stdDeviation="91.8532" result="effect1_foregroundBlur_208_1566"/>
</filter>
<filter id="filter6_f_208_1566" x="-437.133" y="397.487" width="1908.75" height="1398.28" filterUnits="userSpaceOnUse" color-interpolation-filters="sRGB">
<feFlood flood-opacity="0" result="BackgroundImageFix"/>
<feBlend mode="normal" in="SourceGraphic" in2="BackgroundImageFix" result="shape"/>
<feGaussianBlur stdDeviation="91.8532" result="effect1_foregroundBlur_208_1566"/>
</filter>
<filter id="filter7_f_208_1566" x="-437.133" y="397.487" width="1908.75" height="1398.28" filterUnits="userSpaceOnUse" color-interpolation-filters="sRGB">
<feFlood flood-opacity="0" result="BackgroundImageFix"/>
<feBlend mode="normal" in="SourceGraphic" in2="BackgroundImageFix" result="shape"/>
<feGaussianBlur stdDeviation="91.8532" result="effect1_foregroundBlur_208_1566"/>
</filter>
<filter id="filter8_f_208_1566" x="-124.292" y="424.704" width="1086.72" height="935.631" filterUnits="userSpaceOnUse" color-interpolation-filters="sRGB">
<feFlood flood-opacity="0" result="BackgroundImageFix"/>
<feBlend mode="normal" in="SourceGraphic" in2="BackgroundImageFix" result="shape"/>
<feGaussianBlur stdDeviation="37.5749" result="effect1_foregroundBlur_208_1566"/>
</filter>
<filter id="filter9_f_208_1566" x="394.368" y="-13.5757" width="777.629" height="692.183" filterUnits="userSpaceOnUse" color-interpolation-filters="sRGB">
<feFlood flood-opacity="0" result="BackgroundImageFix"/>
<feBlend mode="normal" in="SourceGraphic" in2="BackgroundImageFix" result="shape"/>
<feGaussianBlur stdDeviation="2.42419" result="effect1_foregroundBlur_208_1566"/>
</filter>
<filter id="filter10_f_208_1566" x="352.069" y="-82.0505" width="833.039" height="814.756" filterUnits="userSpaceOnUse" color-interpolation-filters="sRGB">
<feFlood flood-opacity="0" result="BackgroundImageFix"/>
<feBlend mode="normal" in="SourceGraphic" in2="BackgroundImageFix" result="shape"/>
<feGaussianBlur stdDeviation="8.48466" result="effect1_foregroundBlur_208_1566"/>
</filter>
<filter id="filter11_f_208_1566" x="210.275" y="-212.678" width="964.678" height="915.58" filterUnits="userSpaceOnUse" color-interpolation-filters="sRGB">
<feFlood flood-opacity="0" result="BackgroundImageFix"/>
<feBlend mode="normal" in="SourceGraphic" in2="BackgroundImageFix" result="shape"/>
<feGaussianBlur stdDeviation="12.1209" result="effect1_foregroundBlur_208_1566"/>
</filter>
<filter id="filter12_f_208_1566" x="28.1641" y="-470.1" width="1252.18" height="1399.6" filterUnits="userSpaceOnUse" color-interpolation-filters="sRGB">
<feFlood flood-opacity="0" result="BackgroundImageFix"/>
<feBlend mode="normal" in="SourceGraphic" in2="BackgroundImageFix" result="shape"/>
<feGaussianBlur stdDeviation="32.7266" result="effect1_foregroundBlur_208_1566"/>
</filter>
<filter id="filter13_f_208_1566" x="-214.006" y="-703.527" width="1569.51" height="1776.3" filterUnits="userSpaceOnUse" color-interpolation-filters="sRGB">
<feFlood flood-opacity="0" result="BackgroundImageFix"/>
<feBlend mode="normal" in="SourceGraphic" in2="BackgroundImageFix" result="shape"/>
<feGaussianBlur stdDeviation="91.8532" result="effect1_foregroundBlur_208_1566"/>
</filter>
<filter id="filter14_f_208_1566" x="-214.006" y="-703.527" width="1569.51" height="1776.3" filterUnits="userSpaceOnUse" color-interpolation-filters="sRGB">
<feFlood flood-opacity="0" result="BackgroundImageFix"/>
<feBlend mode="normal" in="SourceGraphic" in2="BackgroundImageFix" result="shape"/>
<feGaussianBlur stdDeviation="91.8532" result="effect1_foregroundBlur_208_1566"/>
</filter>
<filter id="filter15_f_208_1566" x="-214.006" y="-703.527" width="1569.51" height="1776.3" filterUnits="userSpaceOnUse" color-interpolation-filters="sRGB">
<feFlood flood-opacity="0" result="BackgroundImageFix"/>
<feBlend mode="normal" in="SourceGraphic" in2="BackgroundImageFix" result="shape"/>
<feGaussianBlur stdDeviation="91.8532" result="effect1_foregroundBlur_208_1566"/>
</filter>
<filter id="filter16_f_208_1566" x="-214.006" y="-703.527" width="1569.51" height="1776.3" filterUnits="userSpaceOnUse" color-interpolation-filters="sRGB">
<feFlood flood-opacity="0" result="BackgroundImageFix"/>
<feBlend mode="normal" in="SourceGraphic" in2="BackgroundImageFix" result="shape"/>
<feGaussianBlur stdDeviation="91.8532" result="effect1_foregroundBlur_208_1566"/>
</filter>
<filter id="filter17_f_208_1566" x="260.997" y="-206.07" width="1006.26" height="1036.1" filterUnits="userSpaceOnUse" color-interpolation-filters="sRGB">
<feFlood flood-opacity="0" result="BackgroundImageFix"/>
<feBlend mode="normal" in="SourceGraphic" in2="BackgroundImageFix" result="shape"/>
<feGaussianBlur stdDeviation="37.5749" result="effect1_foregroundBlur_208_1566"/>
</filter>
<filter id="filter18_f_208_1566" x="1052.34" y="57.371" width="1069.99" height="798.914" filterUnits="userSpaceOnUse" color-interpolation-filters="sRGB">
<feFlood flood-opacity="0" result="BackgroundImageFix"/>
<feBlend mode="normal" in="SourceGraphic" in2="BackgroundImageFix" result="shape"/>
<feGaussianBlur stdDeviation="12.1209" result="effect1_foregroundBlur_208_1566"/>
</filter>
<filter id="filter19_f_208_1566" x="864.393" y="-57.0674" width="1541.97" height="1090.28" filterUnits="userSpaceOnUse" color-interpolation-filters="sRGB">
<feFlood flood-opacity="0" result="BackgroundImageFix"/>
<feBlend mode="normal" in="SourceGraphic" in2="BackgroundImageFix" result="shape"/>
<feGaussianBlur stdDeviation="32.7266" result="effect1_foregroundBlur_208_1566"/>
</filter>
<filter id="filter20_f_208_1566" x="754.706" y="-168.816" width="1877.48" height="1446.49" filterUnits="userSpaceOnUse" color-interpolation-filters="sRGB">
<feFlood flood-opacity="0" result="BackgroundImageFix"/>
<feBlend mode="normal" in="SourceGraphic" in2="BackgroundImageFix" result="shape"/>
<feGaussianBlur stdDeviation="91.8532" result="effect1_foregroundBlur_208_1566"/>
</filter>
<filter id="filter21_f_208_1566" x="754.706" y="-168.816" width="1877.48" height="1446.49" filterUnits="userSpaceOnUse" color-interpolation-filters="sRGB">
<feFlood flood-opacity="0" result="BackgroundImageFix"/>
<feBlend mode="normal" in="SourceGraphic" in2="BackgroundImageFix" result="shape"/>
<feGaussianBlur stdDeviation="91.8532" result="effect1_foregroundBlur_208_1566"/>
</filter>
<filter id="filter22_f_208_1566" x="754.706" y="-168.816" width="1877.48" height="1446.49" filterUnits="userSpaceOnUse" color-interpolation-filters="sRGB">
<feFlood flood-opacity="0" result="BackgroundImageFix"/>
<feBlend mode="normal" in="SourceGraphic" in2="BackgroundImageFix" result="shape"/>
<feGaussianBlur stdDeviation="91.8532" result="effect1_foregroundBlur_208_1566"/>
</filter>
<filter id="filter23_f_208_1566" x="754.706" y="-168.816" width="1877.48" height="1446.49" filterUnits="userSpaceOnUse" color-interpolation-filters="sRGB">
<feFlood flood-opacity="0" result="BackgroundImageFix"/>
<feBlend mode="normal" in="SourceGraphic" in2="BackgroundImageFix" result="shape"/>
<feGaussianBlur stdDeviation="91.8532" result="effect1_foregroundBlur_208_1566"/>
</filter>
<filter id="filter24_f_208_1566" x="1017.48" y="-28.3464" width="1119.87" height="919.624" filterUnits="userSpaceOnUse" color-interpolation-filters="sRGB">
<feFlood flood-opacity="0" result="BackgroundImageFix"/>
<feBlend mode="normal" in="SourceGraphic" in2="BackgroundImageFix" result="shape"/>
<feGaussianBlur stdDeviation="37.5749" result="effect1_foregroundBlur_208_1566"/>
</filter>
<linearGradient id="paint0_linear_208_1566" x1="-491.551" y1="1438.19" x2="1553.61" y2="1009.47" gradientUnits="userSpaceOnUse">
<stop stop-color="#C4C4C4" stop-opacity="0"/>
<stop offset="0.430547" stop-color="#C4C4C4"/>
<stop offset="0.498519" stop-color="#C4C4C4"/>
<stop offset="1" stop-color="#C4C4C4" stop-opacity="0"/>
</linearGradient>
<linearGradient id="paint1_linear_208_1566" x1="324.843" y1="570.751" x2="638.038" y2="1176.56" gradientUnits="userSpaceOnUse">
<stop stop-color="#C4C4C4"/>
<stop offset="1" stop-color="#C4C4C4" stop-opacity="0"/>
</linearGradient>
<linearGradient id="paint2_linear_208_1566" x1="79.5043" y1="1111.21" x2="815.164" y2="-17.3095" gradientUnits="userSpaceOnUse">
<stop stop-color="#C4C4C4" stop-opacity="0"/>
<stop offset="0.425938" stop-color="#C4C4C4"/>
<stop offset="0.635019" stop-color="#C4C4C4"/>
<stop offset="1" stop-color="#C4C4C4" stop-opacity="0"/>
</linearGradient>
<linearGradient id="paint3_linear_208_1566" x1="1074.34" y1="456.029" x2="531.376" y2="43.3843" gradientUnits="userSpaceOnUse">
<stop stop-color="#C4C4C4"/>
<stop offset="1" stop-color="#C4C4C4" stop-opacity="0"/>
</linearGradient>
<linearGradient id="paint4_linear_208_1566" x1="2453.41" y1="-137.043" x2="1098.85" y2="1454.07" gradientUnits="userSpaceOnUse">
<stop stop-color="#C4C4C4" stop-opacity="0"/>
<stop offset="0.430547" stop-color="#C4C4C4"/>
<stop offset="0.581009" stop-color="#C4C4C4"/>
<stop offset="0.761212" stop-color="#C4C4C4" stop-opacity="0"/>
</linearGradient>
<linearGradient id="paint5_linear_208_1566" x1="1301.17" y1="165.12" x2="1683.44" y2="729.887" gradientUnits="userSpaceOnUse">
<stop stop-color="#3CD2F7"/>
<stop offset="1" stop-color="#46D5F9" stop-opacity="0"/>
</linearGradient>
</defs>
</svg>
