<svg width="595" height="696" viewBox="0 0 595 696" fill="none" xmlns="http://www.w3.org/2000/svg">
<path opacity="0.3" d="M588.187 514.589C596.91 519.657 596.91 527.869 588.187 532.836L313.296 691.489C304.572 696.558 290.27 696.558 281.546 691.489L6.65492 532.836C-2.06857 527.767 -2.06857 519.556 6.65492 514.589L281.546 355.936C290.27 350.867 304.572 350.867 313.296 355.936L588.187 514.589Z" fill="#060511"/>
<path d="M588.187 338.864C596.91 343.932 596.91 352.144 588.187 357.111L313.296 515.764C304.572 520.833 290.27 520.833 281.546 515.764L6.65492 357.213C-2.06857 352.144 -2.06857 343.932 6.65492 338.965L281.546 180.312C290.27 175.243 304.572 175.243 313.296 180.312L588.187 338.864Z" fill="url(#paint0_radial_142_1242)"/>
<path d="M588.187 357.213L313.296 515.866C304.572 520.934 290.27 520.934 281.546 515.866L6.65498 357.213C2.49611 354.78 0.365958 351.738 0.163086 348.596V388.234C0.365958 391.376 2.59755 394.519 6.65498 396.851L281.546 555.503C290.27 560.572 304.572 560.572 313.296 555.503L588.187 396.851C592.549 394.316 594.679 390.971 594.679 387.727V349.103H594.577C594.273 351.941 592.143 354.881 588.187 357.213Z" fill="#1A1543"/>
<path opacity="0.2" d="M294.733 450.782C398.653 450.782 482.896 402.173 482.896 342.209C482.896 282.246 398.653 233.636 294.733 233.636C190.813 233.636 106.569 282.246 106.569 342.209C106.569 402.173 190.813 450.782 294.733 450.782Z" fill="#4CE9F4"/>
<path opacity="0.5" d="M294.733 447.437C395.404 447.437 477.014 400.325 477.014 342.209C477.014 284.093 395.404 236.981 294.733 236.981C194.063 236.981 112.453 284.093 112.453 342.209C112.453 400.325 194.063 447.437 294.733 447.437Z" fill="#4CE9F4"/>
<path d="M420.615 269.523C490.098 309.668 490.098 374.649 420.615 414.794C351.131 454.939 238.436 454.939 168.851 414.794C99.3674 374.649 99.3674 309.668 168.851 269.523C238.436 229.378 351.131 229.378 420.615 269.523Z" fill="#4CE9F4"/>
<path opacity="0.1" d="M417.369 271.348C485.128 310.479 485.128 373.838 417.369 412.868C349.609 451.999 239.856 451.898 172.097 412.868C104.338 373.737 104.338 310.377 172.097 271.348C239.856 232.318 349.609 232.318 417.369 271.348Z" fill="#1ED6FE"/>
<path d="M398.603 282.195C456.016 315.345 456.016 368.972 398.603 402.122C341.19 435.272 248.174 435.272 190.862 402.122C133.45 368.972 133.45 315.345 190.862 282.195C248.275 249.146 341.292 249.146 398.603 282.195Z" fill="#4CE9F4"/>
<path d="M396.676 283.31C452.973 315.75 452.973 368.465 396.676 400.906C340.379 433.346 249.087 433.346 192.79 400.906C136.493 368.465 136.493 315.75 192.79 283.31C249.087 250.87 340.379 250.87 396.676 283.31Z" fill="url(#paint1_linear_142_1242)"/>
<path d="M391.502 286.351C444.959 317.169 444.959 367.148 391.502 397.966C338.046 428.784 251.419 428.784 198.064 397.966C144.608 367.148 144.608 317.169 198.064 286.351C251.419 255.533 338.046 255.533 391.502 286.351Z" fill="#221E58"/>
<path opacity="0.2" fill-rule="evenodd" clip-rule="evenodd" d="M290.714 0.212769C380.856 0.212769 453.929 73.2428 453.929 163.331C453.929 253.419 380.856 326.449 290.714 326.449C200.573 326.449 127.499 253.419 127.499 163.331C127.499 73.2428 200.573 0.212769 290.714 0.212769Z" fill="#51FFFF"/>
<path fill-rule="evenodd" clip-rule="evenodd" d="M290.715 21.0023C369.3 21.0023 433.128 84.7926 433.128 163.331C433.128 241.869 369.3 305.66 290.715 305.66C212.13 305.66 148.302 241.869 148.302 163.331C148.302 84.7926 212.13 21.0023 290.715 21.0023Z" fill="url(#paint2_radial_142_1242)"/>
<g clip-path="url(#clip0_142_1242)">
<path d="M262.345 181.255C264.449 183.562 266.122 185.565 267.973 187.34C271.91 191.043 276.686 193.736 281.892 195.189C287.098 196.642 292.579 196.811 297.864 195.682C303.15 194.553 308.083 192.16 312.242 188.708C316.4 185.255 319.66 180.846 321.741 175.858C323.823 170.87 324.664 165.452 324.193 160.068C323.722 154.683 321.953 149.493 319.038 144.942C316.122 140.391 312.147 136.615 307.452 133.936C302.758 131.258 297.484 129.757 292.082 129.563C278.146 129.219 264.613 134.26 254.298 143.639C243.984 153.017 237.681 166.01 236.702 179.917C235.722 193.823 240.141 207.572 249.039 218.303C257.937 229.035 270.63 235.923 284.477 237.536C324.381 241.897 362.307 210.511 365.602 170.481C368.695 129.386 342.33 94.7047 301.589 88.8992C271.015 84.5387 244.548 94.9075 222.619 116.558C213.666 125.513 206.666 136.225 202.059 148.019C201.577 149.236 201.019 150.402 200.461 151.67C199.27 151.011 199.752 150.022 199.752 149.312C199.523 124.848 199.65 100.485 199.523 76.0966C199.523 72.6994 200.335 71.6093 203.909 71.6093C232.481 71.7614 260.951 71.6093 289.471 71.7361C335.687 72.0656 372.245 102.614 380.611 147.664C389.509 195.427 356.045 243.849 308.206 252.418C277.328 257.944 251.368 249.629 233.114 223.517C217.27 200.903 215.774 175.957 228.602 151.366C241.43 126.775 262.903 113.921 290.79 113.414C303.728 113.35 316.178 118.356 325.47 127.36C334.763 136.363 340.16 148.648 340.504 161.582C340.774 174.534 336.007 187.084 327.206 196.589C318.405 206.095 306.258 211.813 293.325 212.539C289.321 212.845 285.297 212.316 281.509 210.984C277.721 209.653 274.251 207.548 271.319 204.805C268.387 202.061 266.057 198.738 264.477 195.046C262.898 191.355 262.102 187.375 262.142 183.36C262.091 182.827 262.218 182.295 262.345 181.255Z" fill="white"/>
<path d="M225.788 254.142C217.067 254.142 209.664 254.142 202.414 254.142C200.335 254.142 199.523 253.482 199.523 251.353C199.523 239.514 199.523 227.649 199.929 215.632C205.629 230.205 214.456 243.351 225.788 254.142V254.142Z" fill="white"/>
<path d="M298.902 162.875C298.851 165.013 297.981 167.05 296.471 168.564C294.961 170.079 292.927 170.955 290.79 171.013C288.712 170.919 286.746 170.044 285.284 168.564C283.823 167.083 282.973 165.107 282.905 163.028C282.902 161.96 283.111 160.903 283.522 159.918C283.933 158.933 284.536 158.04 285.296 157.292C286.057 156.543 286.959 155.954 287.95 155.559C288.941 155.164 290.002 154.971 291.069 154.991C293.133 155.061 295.092 155.916 296.548 157.381C298.003 158.846 298.845 160.811 298.902 162.875Z" fill="white"/>
</g>
<path fill-rule="evenodd" clip-rule="evenodd" d="M194.21 395.634C195.427 396.445 196.746 397.155 198.065 397.966C251.521 428.784 338.147 428.784 391.503 397.966C392.821 397.155 394.14 396.445 395.357 395.634C373.549 363.397 336.626 342.108 294.834 342.108C252.84 342.209 215.917 363.397 194.21 395.634Z" fill="url(#paint3_linear_142_1242)"/>
<g opacity="0.5">
<path opacity="0.5" d="M294.733 409.928C263.389 409.928 233.972 402.933 211.859 390.16C189.645 377.386 177.473 360.355 177.473 342.209C177.473 324.063 189.645 307.032 211.859 294.258C233.972 281.485 263.389 274.49 294.733 274.49C326.076 274.49 355.493 281.485 377.606 294.258C399.82 307.032 411.992 324.063 411.992 342.209C411.992 360.355 399.82 377.386 377.606 390.16C355.493 402.933 326.076 409.928 294.733 409.928ZM294.733 274.896C263.49 274.896 234.175 281.891 212.062 294.664C190.051 307.336 177.878 324.266 177.878 342.209C177.878 360.153 190.051 377.082 212.062 389.754C234.175 402.528 263.49 409.523 294.733 409.523C325.975 409.523 355.29 402.528 377.403 389.754C399.414 377.082 411.587 360.153 411.587 342.209C411.587 324.266 399.414 307.336 377.403 294.664C355.29 281.891 325.975 274.896 294.733 274.896Z" fill="#66FFFF"/>
</g>
<g opacity="0.3">
<path opacity="0.3" d="M294.733 405.569C272.519 405.569 251.724 400.601 236.002 391.478C220.279 382.354 211.556 370.29 211.556 357.415C211.556 344.541 220.178 332.477 236.002 323.353C251.724 314.331 272.519 309.262 294.733 309.262C316.948 309.262 337.742 314.229 353.464 323.353C369.187 332.477 377.911 344.541 377.911 357.415C377.911 370.29 369.288 382.354 353.464 391.478C337.843 400.5 316.948 405.569 294.733 405.569ZM294.733 309.87C272.62 309.87 251.826 314.838 236.205 323.86C220.583 332.883 212.063 344.743 212.063 357.517C212.063 370.189 220.685 382.151 236.205 391.174C251.826 400.196 272.62 405.163 294.733 405.163C316.846 405.163 337.64 400.196 353.262 391.174C368.883 382.151 377.403 370.29 377.403 357.517C377.403 344.845 368.781 332.883 353.262 323.86C337.64 314.838 316.846 309.87 294.733 309.87Z" fill="#66FFFF"/>
</g>
<path d="M319.584 353.462C333.278 361.369 333.278 374.244 319.584 382.151C305.89 390.058 283.575 390.058 269.881 382.151C256.187 374.244 256.187 361.369 269.881 353.462C283.676 345.554 305.89 345.554 319.584 353.462Z" fill="url(#paint4_linear_142_1242)"/>
<path d="M294.733 388.538C285.604 388.538 276.576 386.51 269.678 382.557C262.882 378.603 259.129 373.433 259.129 367.756C259.129 362.18 262.882 356.909 269.678 352.955C283.474 344.946 305.992 344.946 319.889 352.955C326.685 356.909 330.438 362.079 330.438 367.756C330.438 373.331 326.685 378.603 319.889 382.557C312.89 386.612 303.862 388.538 294.733 388.538ZM294.733 348.089C285.807 348.089 276.88 350.015 270.084 353.969C263.592 357.72 260.042 362.687 260.042 367.857C260.042 373.129 263.592 377.995 270.084 381.746C283.676 389.552 305.688 389.552 319.28 381.746C325.772 377.995 329.323 373.027 329.323 367.857C329.323 362.586 325.772 357.72 319.28 353.969C312.586 350.015 303.659 348.089 294.733 348.089Z" fill="#66FFFF"/>
<path opacity="0.4" d="M63.2563 353.259V247.423H31.5068V353.259C31.5068 355.591 33.0284 357.922 36.1729 359.747C42.3605 363.295 52.5041 363.295 58.6916 359.747C61.7347 357.922 63.2563 355.591 63.2563 353.259Z" fill="url(#paint5_linear_142_1242)"/>
<path opacity="0.3" d="M60.2133 345.859C67.3138 349.914 67.3138 356.604 60.2133 360.659C53.1128 364.715 41.6505 364.715 34.55 360.659C27.4495 356.604 27.4495 349.914 34.55 345.859C41.6505 341.702 53.1128 341.702 60.2133 345.859Z" fill="#4CE9F4"/>
<path opacity="0.5" d="M59.4013 346.264C65.9946 350.116 65.9946 356.3 59.4013 360.153C52.808 364.005 41.9543 364.005 35.361 360.153C28.7677 356.3 28.7677 350.116 35.361 346.264C41.9543 342.412 52.808 342.412 59.4013 346.264Z" fill="#4CE9F4"/>
<path d="M58.5901 346.771C64.7777 350.319 64.7777 356.199 58.5901 359.747C52.4025 363.295 42.2589 363.295 36.0714 359.747C29.8838 356.199 29.8838 350.319 36.0714 346.771C42.3604 343.121 52.4025 343.121 58.5901 346.771Z" fill="#4CE9F4"/>
<path d="M57.9807 347.075C63.864 350.42 63.864 355.996 57.9807 359.342C52.0974 362.687 42.5625 362.687 36.7806 359.342C30.8973 355.996 30.8973 350.42 36.7806 347.075C42.6639 343.73 52.0974 343.73 57.9807 347.075Z" fill="#3FA9F5"/>
<path opacity="0.2" d="M58.5901 325.381C64.7777 328.929 64.7777 334.809 58.5901 338.357C52.4025 341.905 42.2589 341.905 36.0714 338.357C29.8838 334.809 29.8838 328.929 36.0714 325.381C42.3604 321.731 52.4025 321.731 58.5901 325.381Z" fill="#D3FFFF"/>
<path opacity="0.1" d="M58.5901 333.389C64.7777 336.938 64.7777 342.817 58.5901 346.366C52.4025 349.914 42.2589 349.914 36.0714 346.366C29.8838 342.817 29.8838 336.938 36.0714 333.389C42.3604 329.841 52.4025 329.841 58.5901 333.389Z" fill="#D3FFFF"/>
<path opacity="0.5" d="M36.6795 274.085C36.1723 274.085 35.7666 274.49 35.7666 274.997V307.234H37.5925V274.997C37.5925 274.49 37.1867 274.085 36.6795 274.085Z" fill="url(#paint6_linear_142_1242)"/>
<path opacity="0.5" d="M59.2996 268.61C58.7925 268.61 58.3867 269.016 58.3867 269.523V301.76H60.2126V269.523C60.2126 269.016 59.8068 268.61 59.2996 268.61Z" fill="url(#paint7_linear_142_1242)"/>
<path opacity="0.7" d="M49.3597 278.444C49.0554 278.444 48.8525 278.647 48.8525 278.951V306.93H49.8669V278.951C49.8669 278.748 49.664 278.444 49.3597 278.444Z" fill="url(#paint8_linear_142_1242)"/>
<path opacity="0.7" d="M33.7376 252.999C33.4333 252.999 33.2305 253.201 33.2305 253.505V281.485H34.2448V253.505C34.2448 253.201 34.042 252.999 33.7376 252.999Z" fill="url(#paint9_linear_142_1242)"/>
<path opacity="0.7" d="M51.4899 249.045C51.3884 249.045 51.1855 249.146 51.1855 249.248V277.633H51.6927V249.248C51.7942 249.146 51.5913 249.045 51.4899 249.045Z" fill="url(#paint10_linear_142_1242)"/>
<path opacity="0.7" d="M42.8669 283.006C42.7655 283.006 42.6641 283.107 42.6641 283.208V311.594H43.1712V283.208C43.0698 283.107 42.9684 283.006 42.8669 283.006Z" fill="url(#paint11_linear_142_1242)"/>
<path opacity="0.3" d="M56.1552 275.2C56.1552 275.605 55.7495 276.011 55.3437 276.011C54.938 276.011 54.5322 275.605 54.5322 275.2C54.5322 274.794 54.938 274.389 55.3437 274.389C55.8509 274.389 56.1552 274.794 56.1552 275.2Z" fill="#1ED5FD"/>
<path opacity="0.3" d="M55.9519 275.2C55.9519 275.504 55.749 275.707 55.4447 275.707C55.1404 275.707 54.9375 275.504 54.9375 275.2C54.9375 274.896 55.1404 274.693 55.4447 274.693C55.6476 274.693 55.9519 274.896 55.9519 275.2Z" fill="#1ED5FD"/>
<path d="M55.7486 275.199C55.7486 275.402 55.5459 275.503 55.4446 275.503C55.3433 275.503 55.1406 275.301 55.1406 275.199C55.1406 274.997 55.3433 274.896 55.4446 274.896C55.5459 274.896 55.7486 274.997 55.7486 275.199Z" fill="#1ED5FD"/>
<path opacity="0.3" d="M43.7799 267.495C43.7799 268.509 42.9684 269.219 42.0555 269.219C41.0411 269.219 40.3311 268.408 40.3311 267.495C40.3311 266.482 41.1425 265.772 42.0555 265.772C42.9684 265.772 43.7799 266.583 43.7799 267.495Z" fill="#1ED5FD"/>
<path opacity="0.3" d="M43.0695 267.495C43.0695 268.104 42.5623 268.61 41.9537 268.61C41.3451 268.61 40.8379 268.104 40.8379 267.495C40.8379 266.887 41.3451 266.38 41.9537 266.38C42.5623 266.38 43.0695 266.887 43.0695 267.495Z" fill="#1ED5FD"/>
<path d="M42.7658 267.495C42.7658 267.901 42.4615 268.205 42.0558 268.205C41.65 268.205 41.3457 267.901 41.3457 267.495C41.3457 267.09 41.65 266.786 42.0558 266.786C42.3601 266.786 42.7658 267.09 42.7658 267.495Z" fill="#1ED5FD"/>
<path opacity="0.3" d="M61.9371 262.224C61.9371 263.237 61.1256 263.947 60.2127 263.947C59.1983 263.947 58.4883 263.136 58.4883 262.224C58.4883 261.21 59.2998 260.5 60.2127 260.5C61.1256 260.399 61.9371 261.21 61.9371 262.224Z" fill="#1ED5FD"/>
<path opacity="0.3" d="M61.3283 262.224C61.3283 262.832 60.8211 263.339 60.2125 263.339C59.6039 263.339 59.0967 262.832 59.0967 262.224C59.0967 261.615 59.6039 261.109 60.2125 261.109C60.8211 261.109 61.3283 261.615 61.3283 262.224Z" fill="#1ED5FD"/>
<path d="M60.923 262.224C60.923 262.629 60.6187 262.933 60.213 262.933C59.8072 262.933 59.5029 262.629 59.5029 262.224C59.5029 261.818 59.8072 261.514 60.213 261.514C60.6187 261.413 60.923 261.818 60.923 262.224Z" fill="#1ED5FD"/>
<path opacity="0.3" d="M40.5338 254.316C40.5338 255.33 39.7223 256.04 38.8094 256.04C37.795 256.04 37.085 255.229 37.085 254.316C37.085 253.303 37.8964 252.593 38.8094 252.593C39.8237 252.593 40.5338 253.404 40.5338 254.316Z" fill="#1ED5FD"/>
<path opacity="0.3" d="M39.9249 254.316C39.9249 254.925 39.4178 255.432 38.8092 255.432C38.2005 255.432 37.6934 254.925 37.6934 254.316C37.6934 253.708 38.2005 253.201 38.8092 253.201C39.4178 253.201 39.9249 253.708 39.9249 254.316Z" fill="#1ED5FD"/>
<path d="M39.5197 254.316C39.5197 254.722 39.2154 255.026 38.8097 255.026C38.4039 255.026 38.0996 254.722 38.0996 254.316C38.0996 253.911 38.4039 253.607 38.8097 253.607C39.2154 253.607 39.5197 253.911 39.5197 254.316Z" fill="#1ED5FD"/>
<path opacity="0.3" d="M48.8529 255.33C48.8529 255.837 48.4472 256.344 47.8386 256.344C47.3314 256.344 46.8242 255.938 46.8242 255.33C46.8242 254.823 47.23 254.316 47.8386 254.316C48.4472 254.316 48.8529 254.823 48.8529 255.33Z" fill="#1ED5FD"/>
<path opacity="0.3" d="M48.5483 255.33C48.5483 255.634 48.244 255.938 47.9397 255.938C47.6354 255.938 47.3311 255.634 47.3311 255.33C47.3311 255.026 47.6354 254.722 47.9397 254.722C48.244 254.722 48.5483 254.925 48.5483 255.33Z" fill="#1ED5FD"/>
<path d="M48.3448 255.33C48.3448 255.532 48.1421 255.735 47.9395 255.735C47.7368 255.735 47.5342 255.532 47.5342 255.33C47.5342 255.127 47.7368 254.925 47.9395 254.925C48.1421 254.925 48.3448 255.127 48.3448 255.33Z" fill="#1ED5FD"/>
<path opacity="0.3" d="M41.5485 275.2C41.5485 275.504 41.3457 275.707 41.0414 275.707C40.7371 275.707 40.5342 275.504 40.5342 275.2C40.5342 274.896 40.7371 274.693 41.0414 274.693C41.3457 274.693 41.5485 274.896 41.5485 275.2Z" fill="#1ED5FD"/>
<path opacity="0.3" d="M41.3443 275.2C41.3443 275.402 41.2429 275.503 41.0403 275.503C40.8377 275.503 40.7363 275.402 40.7363 275.2C40.7363 274.997 40.939 274.896 41.0403 274.896C41.2429 274.896 41.3443 274.997 41.3443 275.2Z" fill="#1ED5FD"/>
<path d="M41.2432 275.2C41.2432 275.301 41.1419 275.402 41.0405 275.402C40.9392 275.402 40.8379 275.301 40.8379 275.2C40.8379 275.098 40.9392 274.997 41.0405 274.997C41.1419 274.997 41.2432 275.098 41.2432 275.2Z" fill="#1ED5FD"/>
<path opacity="0.3" d="M47.5332 285.134C47.5332 285.337 47.3306 285.539 47.128 285.539C46.9253 285.539 46.7227 285.337 46.7227 285.134C46.7227 284.932 46.9253 284.729 47.128 284.729C47.3306 284.628 47.5332 284.83 47.5332 285.134Z" fill="#1ED5FD"/>
<path opacity="0.3" d="M47.4322 285.134C47.4322 285.236 47.3308 285.438 47.1282 285.438C47.0269 285.438 46.8242 285.337 46.8242 285.134C46.8242 285.033 46.9255 284.83 47.1282 284.83C47.2295 284.83 47.4322 284.932 47.4322 285.134Z" fill="#1ED5FD"/>
<path d="M47.3311 285.134C47.3311 285.236 47.2298 285.337 47.1284 285.337C47.0271 285.337 46.9258 285.236 46.9258 285.134C46.9258 285.033 47.0271 284.932 47.1284 284.932C47.2298 284.932 47.3311 285.033 47.3311 285.134Z" fill="#1ED5FD"/>
<path opacity="0.14" d="M70.1538 335.316C82.8332 342.615 82.8332 354.476 70.1538 361.775C57.4743 369.074 36.9842 369.074 24.4062 361.775C11.8281 354.476 11.7267 342.615 24.4062 335.316C36.9842 328.017 57.4743 328.017 70.1538 335.316Z" fill="url(#paint12_linear_142_1242)"/>
<path opacity="0.14" d="M70.1537 335.316C57.4742 328.017 36.9841 328.017 24.4061 335.316C11.7266 342.615 11.7266 354.476 24.4061 361.775C37.0856 369.074 57.5756 369.074 70.1537 361.775C82.7317 354.476 82.7317 342.615 70.1537 335.316ZM69.8494 361.572C57.3727 368.77 37.0856 368.77 24.5075 361.572C12.0309 354.374 12.0309 342.615 24.5075 335.417C36.9841 328.219 57.2713 328.219 69.8494 335.417C82.4274 342.716 82.4274 354.374 69.8494 361.572Z" fill="url(#paint13_linear_142_1242)"/>
<path opacity="0.55" d="M58.5901 317.271C64.7777 320.819 64.7777 326.699 58.5901 330.247C52.4025 333.795 42.2589 333.795 36.0714 330.247C29.8838 326.699 29.8838 320.819 36.0714 317.271C42.3604 313.723 52.4025 313.723 58.5901 317.271Z" fill="#51FFFF"/>
<path opacity="0.4" d="M313.252 490.824V384.988H281.503V490.824C281.503 493.155 283.024 495.487 286.169 497.312C292.357 500.86 302.5 500.86 308.688 497.312C311.731 495.487 313.252 493.155 313.252 490.824Z" fill="url(#paint14_linear_142_1242)"/>
<path opacity="0.3" d="M310.209 483.423C317.31 487.478 317.31 494.169 310.209 498.224C303.109 502.279 291.647 502.279 284.546 498.224C277.446 494.169 277.446 487.478 284.546 483.423C291.647 479.267 303.109 479.267 310.209 483.423Z" fill="#4CE9F4"/>
<path opacity="0.5" d="M309.397 483.829C315.991 487.681 315.991 493.865 309.397 497.717C302.804 501.57 291.95 501.57 285.357 497.717C278.764 493.865 278.764 487.681 285.357 483.829C291.95 479.977 302.804 479.977 309.397 483.829Z" fill="#4CE9F4"/>
<path d="M308.586 484.336C314.774 487.884 314.774 493.764 308.586 497.312C302.399 500.86 292.255 500.86 286.067 497.312C279.88 493.764 279.88 487.884 286.067 484.336C292.356 480.686 302.399 480.686 308.586 484.336Z" fill="#4CE9F4"/>
<path d="M307.977 484.64C313.86 487.985 313.86 493.561 307.977 496.906C302.094 500.252 292.559 500.252 286.777 496.906C280.893 493.561 280.893 487.985 286.777 484.64C292.66 481.294 302.094 481.294 307.977 484.64Z" fill="#3FA9F5"/>
<path opacity="0.2" d="M308.586 462.945C314.774 466.494 314.774 472.373 308.586 475.921C302.399 479.47 292.255 479.47 286.067 475.921C279.88 472.373 279.88 466.494 286.067 462.945C292.356 459.296 302.399 459.296 308.586 462.945Z" fill="#D3FFFF"/>
<path opacity="0.1" d="M308.586 470.954C314.774 474.502 314.774 480.382 308.586 483.93C302.399 487.478 292.255 487.478 286.067 483.93C279.88 480.382 279.88 474.502 286.067 470.954C292.356 467.406 302.399 467.406 308.586 470.954Z" fill="#D3FFFF"/>
<path opacity="0.5" d="M286.676 411.649C286.168 411.649 285.763 412.055 285.763 412.562V444.799H287.589V412.562C287.589 412.055 287.183 411.649 286.676 411.649Z" fill="url(#paint15_linear_142_1242)"/>
<path opacity="0.5" d="M309.296 406.175C308.789 406.175 308.383 406.581 308.383 407.087V439.325H310.209V407.087C310.209 406.581 309.803 406.175 309.296 406.175Z" fill="url(#paint16_linear_142_1242)"/>
<path opacity="0.7" d="M299.356 416.009C299.052 416.009 298.849 416.211 298.849 416.515V444.495H299.863V416.515C299.863 416.313 299.66 416.009 299.356 416.009Z" fill="url(#paint17_linear_142_1242)"/>
<path opacity="0.7" d="M283.734 390.563C283.429 390.563 283.227 390.766 283.227 391.07V419.05H284.241V391.07C284.241 390.766 284.038 390.563 283.734 390.563Z" fill="url(#paint18_linear_142_1242)"/>
<path opacity="0.7" d="M301.486 386.61C301.385 386.61 301.182 386.711 301.182 386.812V415.197H301.689V386.812C301.79 386.711 301.587 386.61 301.486 386.61Z" fill="url(#paint19_linear_142_1242)"/>
<path opacity="0.7" d="M292.864 420.57C292.763 420.57 292.661 420.672 292.661 420.773V449.158H293.168V420.773C293.067 420.672 292.965 420.57 292.864 420.57Z" fill="url(#paint20_linear_142_1242)"/>
<path opacity="0.3" d="M306.152 412.765C306.152 413.17 305.747 413.576 305.341 413.576C304.935 413.576 304.529 413.17 304.529 412.765C304.529 412.359 304.935 411.954 305.341 411.954C305.848 411.954 306.152 412.359 306.152 412.765Z" fill="#1ED5FD"/>
<path opacity="0.3" d="M305.95 412.764C305.95 413.069 305.747 413.271 305.443 413.271C305.138 413.271 304.936 413.069 304.936 412.764C304.936 412.46 305.138 412.258 305.443 412.258C305.646 412.258 305.95 412.46 305.95 412.764Z" fill="#1ED5FD"/>
<path d="M305.746 412.764C305.746 412.967 305.543 413.068 305.442 413.068C305.34 413.068 305.138 412.865 305.138 412.764C305.138 412.562 305.34 412.46 305.442 412.46C305.543 412.46 305.746 412.562 305.746 412.764Z" fill="#1ED5FD"/>
<path opacity="0.3" d="M293.777 405.06C293.777 406.074 292.965 406.783 292.053 406.783C291.038 406.783 290.328 405.972 290.328 405.06C290.328 404.046 291.14 403.337 292.053 403.337C292.965 403.337 293.777 404.148 293.777 405.06Z" fill="#1ED5FD"/>
<path opacity="0.3" d="M293.067 405.06C293.067 405.668 292.559 406.175 291.951 406.175C291.342 406.175 290.835 405.668 290.835 405.06C290.835 404.452 291.342 403.945 291.951 403.945C292.559 403.945 293.067 404.452 293.067 405.06Z" fill="#1ED5FD"/>
<path d="M292.763 405.06C292.763 405.466 292.459 405.77 292.053 405.77C291.647 405.77 291.343 405.466 291.343 405.06C291.343 404.654 291.647 404.35 292.053 404.35C292.357 404.35 292.763 404.654 292.763 405.06Z" fill="#1ED5FD"/>
<path opacity="0.3" d="M311.934 399.788C311.934 400.802 311.123 401.512 310.21 401.512C309.195 401.512 308.485 400.701 308.485 399.788C308.485 398.775 309.297 398.065 310.21 398.065C311.123 397.964 311.934 398.775 311.934 399.788Z" fill="#1ED5FD"/>
<path opacity="0.3" d="M311.325 399.788C311.325 400.397 310.818 400.904 310.21 400.904C309.601 400.904 309.094 400.397 309.094 399.788C309.094 399.18 309.601 398.673 310.21 398.673C310.818 398.673 311.325 399.18 311.325 399.788Z" fill="#1ED5FD"/>
<path d="M310.92 399.789C310.92 400.194 310.616 400.498 310.21 400.498C309.804 400.498 309.5 400.194 309.5 399.789C309.5 399.383 309.804 399.079 310.21 399.079C310.616 398.977 310.92 399.383 310.92 399.789Z" fill="#1ED5FD"/>
<path opacity="0.3" d="M290.531 391.881C290.531 392.895 289.719 393.605 288.806 393.605C287.792 393.605 287.082 392.794 287.082 391.881C287.082 390.867 287.894 390.158 288.806 390.158C289.821 390.158 290.531 390.969 290.531 391.881Z" fill="#1ED5FD"/>
<path opacity="0.3" d="M289.922 391.881C289.922 392.489 289.415 392.996 288.806 392.996C288.198 392.996 287.69 392.489 287.69 391.881C287.69 391.273 288.198 390.766 288.806 390.766C289.415 390.766 289.922 391.273 289.922 391.881Z" fill="#1ED5FD"/>
<path d="M289.517 391.881C289.517 392.287 289.212 392.591 288.807 392.591C288.401 392.591 288.097 392.287 288.097 391.881C288.097 391.476 288.401 391.171 288.807 391.171C289.212 391.171 289.517 391.476 289.517 391.881Z" fill="#1ED5FD"/>
<path opacity="0.3" d="M298.848 392.895C298.848 393.402 298.442 393.909 297.834 393.909C297.327 393.909 296.819 393.503 296.819 392.895C296.819 392.388 297.225 391.881 297.834 391.881C298.442 391.881 298.848 392.388 298.848 392.895Z" fill="#1ED5FD"/>
<path opacity="0.3" d="M298.543 392.895C298.543 393.199 298.239 393.503 297.935 393.503C297.63 393.503 297.326 393.199 297.326 392.895C297.326 392.591 297.63 392.287 297.935 392.287C298.239 392.287 298.543 392.489 298.543 392.895Z" fill="#1ED5FD"/>
<path d="M298.34 392.894C298.34 393.097 298.137 393.299 297.935 393.299C297.732 393.299 297.529 393.097 297.529 392.894C297.529 392.692 297.732 392.489 297.935 392.489C298.137 392.489 298.34 392.692 298.34 392.894Z" fill="#1ED5FD"/>
<path opacity="0.3" d="M291.546 412.765C291.546 413.069 291.343 413.271 291.038 413.271C290.734 413.271 290.531 413.069 290.531 412.765C290.531 412.46 290.734 412.258 291.038 412.258C291.343 412.258 291.546 412.46 291.546 412.765Z" fill="#1ED5FD"/>
<path opacity="0.3" d="M291.341 412.764C291.341 412.967 291.24 413.068 291.037 413.068C290.835 413.068 290.733 412.967 290.733 412.764C290.733 412.561 290.936 412.46 291.037 412.46C291.24 412.46 291.341 412.561 291.341 412.764Z" fill="#1ED5FD"/>
<path d="M291.24 412.764C291.24 412.866 291.139 412.967 291.038 412.967C290.936 412.967 290.835 412.866 290.835 412.764C290.835 412.663 290.936 412.562 291.038 412.562C291.139 412.562 291.24 412.663 291.24 412.764Z" fill="#1ED5FD"/>
<path opacity="0.3" d="M297.528 422.699C297.528 422.901 297.326 423.104 297.123 423.104C296.92 423.104 296.718 422.901 296.718 422.699C296.718 422.496 296.92 422.294 297.123 422.294C297.326 422.193 297.528 422.395 297.528 422.699Z" fill="#1ED5FD"/>
<path opacity="0.3" d="M297.427 422.699C297.427 422.8 297.326 423.003 297.123 423.003C297.022 423.003 296.819 422.901 296.819 422.699C296.819 422.598 296.921 422.395 297.123 422.395C297.225 422.395 297.427 422.496 297.427 422.699Z" fill="#1ED5FD"/>
<path d="M297.326 422.699C297.326 422.8 297.225 422.902 297.124 422.902C297.022 422.902 296.921 422.8 296.921 422.699C296.921 422.598 297.022 422.496 297.124 422.496C297.225 422.496 297.326 422.598 297.326 422.699Z" fill="#1ED5FD"/>
<path opacity="0.14" d="M320.15 472.88C332.829 480.179 332.829 492.04 320.15 499.339C307.47 506.638 286.98 506.638 274.402 499.339C261.824 492.04 261.723 480.179 274.402 472.88C286.98 465.581 307.47 465.581 320.15 472.88Z" fill="url(#paint21_linear_142_1242)"/>
<path opacity="0.14" d="M320.15 472.88C307.47 465.581 286.98 465.581 274.402 472.88C261.723 480.179 261.723 492.04 274.402 499.339C287.082 506.638 307.572 506.638 320.15 499.339C332.728 492.04 332.728 480.179 320.15 472.88ZM319.845 499.137C307.369 506.334 287.082 506.334 274.504 499.137C262.027 491.939 262.027 480.179 274.504 472.982C286.98 465.784 307.267 465.784 319.845 472.982C332.423 480.281 332.423 491.939 319.845 499.137Z" fill="url(#paint22_linear_142_1242)"/>
<path opacity="0.55" d="M308.586 454.835C314.774 458.384 314.774 464.263 308.586 467.811C302.399 471.36 292.255 471.36 286.067 467.811C279.88 464.263 279.88 458.384 286.067 454.835C292.356 451.287 302.399 451.287 308.586 454.835Z" fill="#51FFFF"/>
<path opacity="0.4" d="M558.521 352.395V246.559H526.771V352.395C526.771 354.727 528.293 357.058 531.438 358.883C537.625 362.431 547.769 362.431 553.956 358.883C556.999 357.058 558.521 354.727 558.521 352.395Z" fill="url(#paint23_linear_142_1242)"/>
<path opacity="0.3" d="M555.478 344.995C562.578 349.05 562.578 355.741 555.478 359.796C548.377 363.851 536.915 363.851 529.815 359.796C522.714 355.741 522.714 349.05 529.815 344.995C536.915 340.838 548.377 340.838 555.478 344.995Z" fill="#4CE9F4"/>
<path opacity="0.5" d="M554.666 345.4C561.259 349.253 561.259 355.436 554.666 359.289C548.073 363.141 537.219 363.141 530.626 359.289C524.032 355.436 524.032 349.253 530.626 345.4C537.219 341.548 548.073 341.548 554.666 345.4Z" fill="#4CE9F4"/>
<path d="M553.855 345.907C560.042 349.455 560.042 355.335 553.855 358.883C547.667 362.431 537.524 362.431 531.336 358.883C525.148 355.335 525.148 349.455 531.336 345.907C537.625 342.258 547.667 342.258 553.855 345.907Z" fill="#4CE9F4"/>
<path d="M553.245 346.211C559.129 349.557 559.129 355.132 553.245 358.478C547.362 361.823 537.827 361.823 532.045 358.478C526.162 355.132 526.162 349.557 532.045 346.211C537.929 342.866 547.362 342.866 553.245 346.211Z" fill="#3FA9F5"/>
<path opacity="0.2" d="M553.855 324.517C560.042 328.065 560.042 333.945 553.855 337.493C547.667 341.041 537.524 341.041 531.336 337.493C525.148 333.945 525.148 328.065 531.336 324.517C537.625 320.867 547.667 320.867 553.855 324.517Z" fill="#D3FFFF"/>
<path opacity="0.1" d="M553.855 332.526C560.042 336.074 560.042 341.954 553.855 345.502C547.667 349.05 537.524 349.05 531.336 345.502C525.148 341.954 525.148 336.074 531.336 332.526C537.625 328.977 547.667 328.977 553.855 332.526Z" fill="#D3FFFF"/>
<path opacity="0.5" d="M531.944 273.221C531.437 273.221 531.031 273.626 531.031 274.133V306.371H532.857V274.133C532.857 273.626 532.451 273.221 531.944 273.221Z" fill="url(#paint24_linear_142_1242)"/>
<path opacity="0.5" d="M554.564 267.747C554.057 267.747 553.651 268.152 553.651 268.659V300.896H555.477V268.659C555.477 268.152 555.071 267.747 554.564 267.747Z" fill="url(#paint25_linear_142_1242)"/>
<path opacity="0.7" d="M544.624 277.58C544.32 277.58 544.117 277.783 544.117 278.087V306.067H545.132V278.087C545.132 277.884 544.929 277.58 544.624 277.58Z" fill="url(#paint26_linear_142_1242)"/>
<path opacity="0.7" d="M529.002 252.135C528.698 252.135 528.495 252.337 528.495 252.642V280.621H529.509V252.642C529.509 252.337 529.307 252.135 529.002 252.135Z" fill="url(#paint27_linear_142_1242)"/>
<path opacity="0.7" d="M546.755 248.181C546.653 248.181 546.45 248.282 546.45 248.384V276.769H546.957V248.384C547.059 248.282 546.856 248.181 546.755 248.181Z" fill="url(#paint28_linear_142_1242)"/>
<path opacity="0.7" d="M538.132 282.142C538.03 282.142 537.929 282.243 537.929 282.345V310.73H538.436V282.345C538.334 282.243 538.233 282.142 538.132 282.142Z" fill="url(#paint29_linear_142_1242)"/>
<path opacity="0.3" d="M551.42 274.336C551.42 274.741 551.014 275.147 550.608 275.147C550.203 275.147 549.797 274.741 549.797 274.336C549.797 273.93 550.203 273.525 550.608 273.525C551.116 273.525 551.42 273.93 551.42 274.336Z" fill="#1ED5FD"/>
<path opacity="0.3" d="M551.217 274.336C551.217 274.64 551.014 274.843 550.709 274.843C550.405 274.843 550.202 274.64 550.202 274.336C550.202 274.032 550.405 273.829 550.709 273.829C550.912 273.829 551.217 274.032 551.217 274.336Z" fill="#1ED5FD"/>
<path d="M551.013 274.336C551.013 274.538 550.811 274.639 550.709 274.639C550.608 274.639 550.405 274.437 550.405 274.336C550.405 274.133 550.608 274.032 550.709 274.032C550.811 274.032 551.013 274.133 551.013 274.336Z" fill="#1ED5FD"/>
<path opacity="0.3" d="M539.045 266.631C539.045 267.645 538.233 268.355 537.32 268.355C536.306 268.355 535.596 267.544 535.596 266.631C535.596 265.618 536.407 264.908 537.32 264.908C538.233 264.908 539.045 265.719 539.045 266.631Z" fill="#1ED5FD"/>
<path opacity="0.3" d="M538.334 266.631C538.334 267.24 537.827 267.747 537.218 267.747C536.61 267.747 536.103 267.24 536.103 266.631C536.103 266.023 536.61 265.516 537.218 265.516C537.827 265.516 538.334 266.023 538.334 266.631Z" fill="#1ED5FD"/>
<path d="M538.03 266.631C538.03 267.037 537.726 267.341 537.32 267.341C536.915 267.341 536.61 267.037 536.61 266.631C536.61 266.226 536.915 265.922 537.32 265.922C537.625 265.922 538.03 266.226 538.03 266.631Z" fill="#1ED5FD"/>
<path opacity="0.3" d="M557.202 261.36C557.202 262.374 556.39 263.083 555.477 263.083C554.463 263.083 553.753 262.272 553.753 261.36C553.753 260.346 554.564 259.636 555.477 259.636C556.39 259.535 557.202 260.346 557.202 261.36Z" fill="#1ED5FD"/>
<path opacity="0.3" d="M556.593 261.36C556.593 261.968 556.086 262.475 555.477 262.475C554.869 262.475 554.361 261.968 554.361 261.36C554.361 260.752 554.869 260.245 555.477 260.245C556.086 260.245 556.593 260.752 556.593 261.36Z" fill="#1ED5FD"/>
<path d="M556.188 261.36C556.188 261.765 555.883 262.07 555.478 262.07C555.072 262.07 554.768 261.765 554.768 261.36C554.768 260.954 555.072 260.65 555.478 260.65C555.883 260.549 556.188 260.954 556.188 261.36Z" fill="#1ED5FD"/>
<path opacity="0.3" d="M535.798 253.453C535.798 254.466 534.987 255.176 534.074 255.176C533.06 255.176 532.35 254.365 532.35 253.453C532.35 252.439 533.161 251.729 534.074 251.729C535.088 251.729 535.798 252.54 535.798 253.453Z" fill="#1ED5FD"/>
<path opacity="0.3" d="M535.19 253.453C535.19 254.061 534.682 254.568 534.074 254.568C533.465 254.568 532.958 254.061 532.958 253.453C532.958 252.844 533.465 252.337 534.074 252.337C534.682 252.337 535.19 252.844 535.19 253.453Z" fill="#1ED5FD"/>
<path d="M534.784 253.453C534.784 253.858 534.48 254.162 534.074 254.162C533.669 254.162 533.364 253.858 533.364 253.453C533.364 253.047 533.669 252.743 534.074 252.743C534.48 252.743 534.784 253.047 534.784 253.453Z" fill="#1ED5FD"/>
<path opacity="0.3" d="M544.117 254.466C544.117 254.973 543.711 255.48 543.102 255.48C542.595 255.48 542.088 255.075 542.088 254.466C542.088 253.959 542.494 253.453 543.102 253.453C543.711 253.453 544.117 253.959 544.117 254.466Z" fill="#1ED5FD"/>
<path opacity="0.3" d="M543.812 254.466C543.812 254.77 543.508 255.075 543.203 255.075C542.899 255.075 542.595 254.77 542.595 254.466C542.595 254.162 542.899 253.858 543.203 253.858C543.508 253.858 543.812 254.061 543.812 254.466Z" fill="#1ED5FD"/>
<path d="M543.608 254.466C543.608 254.668 543.406 254.871 543.203 254.871C543 254.871 542.798 254.668 542.798 254.466C542.798 254.263 543 254.061 543.203 254.061C543.406 254.061 543.608 254.263 543.608 254.466Z" fill="#1ED5FD"/>
<path opacity="0.3" d="M536.813 274.336C536.813 274.64 536.61 274.843 536.306 274.843C536.002 274.843 535.799 274.64 535.799 274.336C535.799 274.032 536.002 273.829 536.306 273.829C536.61 273.829 536.813 274.032 536.813 274.336Z" fill="#1ED5FD"/>
<path opacity="0.3" d="M536.61 274.336C536.61 274.538 536.509 274.639 536.306 274.639C536.103 274.639 536.002 274.538 536.002 274.336C536.002 274.133 536.205 274.032 536.306 274.032C536.509 274.032 536.61 274.133 536.61 274.336Z" fill="#1ED5FD"/>
<path d="M536.508 274.336C536.508 274.437 536.407 274.538 536.305 274.538C536.204 274.538 536.103 274.437 536.103 274.336C536.103 274.234 536.204 274.133 536.305 274.133C536.407 274.133 536.508 274.234 536.508 274.336Z" fill="#1ED5FD"/>
<path opacity="0.3" d="M542.798 284.27C542.798 284.473 542.595 284.675 542.393 284.675C542.19 284.675 541.987 284.473 541.987 284.27C541.987 284.068 542.19 283.865 542.393 283.865C542.595 283.764 542.798 283.967 542.798 284.27Z" fill="#1ED5FD"/>
<path opacity="0.3" d="M542.697 284.27C542.697 284.372 542.595 284.574 542.393 284.574C542.292 284.574 542.089 284.473 542.089 284.27C542.089 284.169 542.19 283.967 542.393 283.967C542.494 283.967 542.697 284.068 542.697 284.27Z" fill="#1ED5FD"/>
<path d="M542.596 284.271C542.596 284.372 542.494 284.473 542.393 284.473C542.292 284.473 542.19 284.372 542.19 284.271C542.19 284.169 542.292 284.068 542.393 284.068C542.494 284.068 542.596 284.169 542.596 284.271Z" fill="#1ED5FD"/>
<path opacity="0.14" d="M565.418 334.452C578.098 341.751 578.098 353.612 565.418 360.911C552.739 368.21 532.249 368.21 519.671 360.911C507.093 353.612 506.991 341.751 519.671 334.452C532.249 327.153 552.739 327.153 565.418 334.452Z" fill="url(#paint30_linear_142_1242)"/>
<path opacity="0.14" d="M565.418 334.452C552.739 327.153 532.249 327.153 519.671 334.452C506.991 341.751 506.991 353.612 519.671 360.911C532.35 368.21 552.84 368.21 565.418 360.911C577.996 353.612 577.996 341.751 565.418 334.452ZM565.114 360.708C552.637 367.906 532.35 367.906 519.772 360.708C507.296 353.51 507.296 341.751 519.772 334.553C532.249 327.355 552.536 327.355 565.114 334.553C577.692 341.852 577.692 353.51 565.114 360.708Z" fill="url(#paint31_linear_142_1242)"/>
<path opacity="0.55" d="M553.855 316.407C560.042 319.955 560.042 325.835 553.855 329.383C547.667 332.931 537.524 332.931 531.336 329.383C525.148 325.835 525.148 319.955 531.336 316.407C537.625 312.859 547.667 312.859 553.855 316.407Z" fill="#51FFFF"/>
<path d="M436.684 44.1019C428.861 33.6182 414.637 27.9322 395.613 27.9322C382.812 27.9322 368.233 30.4198 352.409 35.0397C353.12 35.3951 353.831 35.7505 354.72 36.1059C369.655 31.8413 383.523 29.5314 395.613 29.5314C414.104 29.5314 427.794 34.862 435.439 44.9903C460.33 78.2181 414.815 154.269 333.918 214.505C280.58 254.308 222.441 279.006 182.26 279.006C163.769 279.006 150.079 273.676 142.434 263.548C130.699 247.911 134.611 222.679 150.612 194.071C150.435 193.36 150.257 192.472 150.079 191.761C133.188 221.613 128.744 248.089 141.011 264.614C148.834 275.097 163.058 280.783 182.082 280.783C222.619 280.783 281.291 255.907 334.807 215.927C416.415 155.157 462.108 78.0404 436.684 44.1019Z" fill="#7CFFFF"/>
<path d="M429.572 195.315C429.395 196.026 429.217 196.914 429.039 197.625C443.44 224.811 446.641 248.799 435.44 263.903C427.794 274.031 414.104 279.362 395.614 279.362C355.254 279.362 297.116 254.663 243.955 214.861C163.236 154.624 117.721 78.5735 142.434 45.3457C150.08 35.2175 163.77 29.8868 182.26 29.8868C195.062 29.8868 209.819 32.3744 225.642 37.172C226.353 36.8167 227.065 36.4613 227.776 36.1059C211.241 30.9529 195.773 28.2876 182.26 28.2876C163.236 28.2876 149.013 33.796 141.19 44.4573C115.765 78.3958 161.458 155.513 243.066 216.46C296.582 256.44 355.254 281.316 395.792 281.316C414.816 281.316 429.039 275.808 436.862 265.147C448.596 248.977 445.041 223.745 429.572 195.315Z" fill="#7CFFFF"/>
<path d="M486.466 102.206C464.242 96.1647 438.817 91.1894 411.259 87.8133C411.615 88.5241 411.97 89.0571 412.504 89.7679C501.579 101.318 563.273 126.016 563.273 154.624C563.273 194.249 444.329 226.588 298.182 226.588C152.035 226.588 33.0904 194.249 33.0904 154.624C33.0904 127.793 87.4955 104.338 167.859 92.0779C168.214 91.3671 168.57 90.834 168.925 90.1233C147.59 93.3217 127.677 97.4085 109.898 102.384C59.2262 116.244 31.3125 134.723 31.3125 154.624C31.3125 174.525 59.2262 193.005 109.898 206.865C160.213 220.547 227.064 228.187 298.182 228.187C369.3 228.187 436.15 220.547 486.466 206.865C537.137 193.005 565.051 174.525 565.051 154.624C565.051 134.545 537.137 116.066 486.466 102.206Z" fill="#7CFFFF"/>
<path opacity="0.3" d="M497.667 77.5074C497.667 83.1934 493.044 87.8133 487.355 87.8133C481.666 87.8133 477.221 83.1934 477.221 77.5074C477.221 71.8213 481.843 67.2014 487.355 67.2014C493.044 67.2014 497.667 71.8213 497.667 77.5074Z" fill="#1ED5FD"/>
<path opacity="0.3" d="M494.111 77.5073C494.111 81.0611 491.266 84.0818 487.532 84.0818C483.977 84.0818 480.954 81.2388 480.954 77.5073C480.954 73.9536 483.799 70.9329 487.532 70.9329C491.088 70.9329 494.111 73.7759 494.111 77.5073Z" fill="#1ED5FD"/>
<path d="M491.799 77.5073C491.799 79.9949 489.843 81.9495 487.354 81.9495C485.043 81.9495 482.909 79.9949 482.909 77.5073C482.909 75.0196 484.865 73.0651 487.354 73.0651C489.843 73.0651 491.799 75.0196 491.799 77.5073Z" fill="#1ED5FD"/>
<path opacity="0.3" d="M86.6065 167.773C86.6065 173.459 81.9838 178.079 76.2944 178.079C70.605 178.079 66.1602 173.459 66.1602 167.773C66.1602 162.087 70.7828 157.467 76.2944 157.467C81.9838 157.467 86.6065 162.087 86.6065 167.773Z" fill="#1ED5FD"/>
<path opacity="0.3" d="M82.8726 167.773C82.8726 171.327 80.0279 174.348 76.2942 174.348C72.7383 174.348 69.7158 171.505 69.7158 167.773C69.7158 164.219 72.5605 161.199 76.2942 161.199C80.0279 161.199 82.8726 164.219 82.8726 167.773Z" fill="#1ED5FD"/>
<path d="M80.7393 167.773C80.7393 170.261 78.7835 172.215 76.2944 172.215C73.9831 172.215 72.0273 170.261 72.0273 167.773C72.0273 165.286 73.9831 163.331 76.2944 163.331C78.7835 163.331 80.7393 165.286 80.7393 167.773Z" fill="#1ED5FD"/>
<path opacity="0.3" d="M103.851 61.3377C103.851 63.6477 101.896 65.4246 99.5844 65.4246C97.2731 65.4246 95.4951 63.47 95.4951 61.3377C95.4951 59.0278 97.4509 57.2509 99.5844 57.2509C101.896 57.2509 103.851 59.0278 103.851 61.3377Z" fill="#1ED5FD"/>
<path opacity="0.3" d="M102.252 61.3377C102.252 62.7592 101.007 64.003 99.5849 64.003C98.1625 64.003 96.918 62.7592 96.918 61.3377C96.918 59.9162 98.1625 58.6723 99.5849 58.6723C101.007 58.6723 102.252 59.9162 102.252 61.3377Z" fill="#1ED5FD"/>
<path d="M101.362 61.3377C101.362 62.4038 100.473 63.1146 99.5836 63.1146C98.5168 63.1146 97.8057 62.4038 97.8057 61.3377C97.8057 60.2716 98.6946 59.5608 99.5836 59.5608C100.65 59.5608 101.362 60.4493 101.362 61.3377Z" fill="#1ED5FD"/>
<path opacity="0.3" d="M124.298 114.111C124.298 116.421 122.342 118.198 120.031 118.198C117.719 118.198 115.941 116.244 115.941 114.111C115.941 111.801 117.897 110.024 120.031 110.024C122.342 110.024 124.298 111.801 124.298 114.111Z" fill="#1ED5FD"/>
<path opacity="0.3" d="M122.698 114.111C122.698 115.533 121.454 116.777 120.031 116.777C118.609 116.777 117.364 115.533 117.364 114.111C117.364 112.69 118.609 111.446 120.031 111.446C121.631 111.446 122.698 112.69 122.698 114.111Z" fill="#1ED5FD"/>
<path d="M121.808 114.111C121.808 115.177 120.919 115.888 120.03 115.888C118.963 115.888 118.252 115.177 118.252 114.111C118.252 113.045 119.141 112.334 120.03 112.334C121.097 112.334 121.808 113.223 121.808 114.111Z" fill="#1ED5FD"/>
<path opacity="0.3" d="M487.354 131.525C487.354 133.835 485.399 135.612 483.087 135.612C480.776 135.612 478.998 133.657 478.998 131.525C478.998 129.215 480.954 127.438 483.087 127.438C485.399 127.438 487.354 129.215 487.354 131.525Z" fill="#1ED5FD"/>
<path opacity="0.3" d="M485.755 131.525C485.755 132.946 484.51 134.19 483.088 134.19C481.665 134.19 480.421 132.946 480.421 131.525C480.421 130.103 481.665 128.859 483.088 128.859C484.51 128.859 485.755 130.103 485.755 131.525Z" fill="#1ED5FD"/>
<path d="M484.864 131.525C484.864 132.591 483.976 133.302 483.087 133.302C482.02 133.302 481.309 132.591 481.309 131.525C481.309 130.459 482.198 129.748 483.087 129.748C484.153 129.748 484.864 130.636 484.864 131.525Z" fill="#1ED5FD"/>
<path opacity="0.3" d="M517.402 158.889C517.402 161.199 515.447 162.976 513.135 162.976C510.824 162.976 509.046 161.021 509.046 158.889C509.046 156.579 511.002 154.802 513.135 154.802C515.447 154.802 517.402 156.579 517.402 158.889Z" fill="#1ED5FD"/>
<path opacity="0.3" d="M515.803 158.889C515.803 160.31 514.558 161.554 513.136 161.554C511.713 161.554 510.469 160.31 510.469 158.889C510.469 157.467 511.713 156.223 513.136 156.223C514.736 156.223 515.803 157.467 515.803 158.889Z" fill="#1ED5FD"/>
<path d="M514.912 158.889C514.912 159.955 514.023 160.666 513.134 160.666C512.068 160.666 511.356 159.955 511.356 158.889C511.356 157.823 512.245 157.112 513.134 157.112C514.201 157.112 514.912 158 514.912 158.889Z" fill="#1ED5FD"/>
<path opacity="0.3" d="M146.346 249.688C146.346 251.998 144.39 253.775 142.079 253.775C139.767 253.775 137.989 251.82 137.989 249.688C137.989 247.378 139.945 245.601 142.079 245.601C144.568 245.423 146.346 247.378 146.346 249.688Z" fill="#1ED5FD"/>
<path opacity="0.3" d="M144.924 249.688C144.924 251.109 143.679 252.353 142.257 252.353C140.834 252.353 139.59 251.109 139.59 249.688C139.59 248.266 140.834 247.022 142.257 247.022C143.679 247.022 144.924 248.266 144.924 249.688Z" fill="#1ED5FD"/>
<path d="M144.034 249.688C144.034 250.754 143.145 251.465 142.256 251.465C141.19 251.465 140.479 250.754 140.479 249.688C140.479 248.622 141.367 247.911 142.256 247.911C143.145 247.911 144.034 248.622 144.034 249.688Z" fill="#1ED5FD"/>
<path opacity="0.3" d="M169.637 43.0357C169.637 45.3457 167.681 47.1226 165.37 47.1226C163.058 47.1226 161.28 45.168 161.28 43.0357C161.28 40.7258 163.236 38.9489 165.37 38.9489C167.681 38.9489 169.637 40.7258 169.637 43.0357Z" fill="#1ED5FD"/>
<path opacity="0.3" d="M168.037 43.0357C168.037 44.4572 166.792 45.7011 165.37 45.7011C163.948 45.7011 162.703 44.4572 162.703 43.0357C162.703 41.6142 163.948 40.3704 165.37 40.3704C166.792 40.3704 168.037 41.6142 168.037 43.0357Z" fill="#1ED5FD"/>
<path d="M167.147 43.0357C167.147 44.1018 166.258 44.8126 165.369 44.8126C164.302 44.8126 163.591 44.1018 163.591 43.0357C163.591 41.9696 164.48 41.2588 165.369 41.2588C166.436 41.2588 167.147 41.9696 167.147 43.0357Z" fill="#1ED5FD"/>
<path opacity="0.3" d="M403.258 16.9155C403.258 19.2254 401.302 21.0023 398.991 21.0023C396.679 21.0023 394.901 19.0478 394.901 16.9155C394.901 14.6055 396.857 12.8286 398.991 12.8286C401.302 12.651 403.258 14.6055 403.258 16.9155Z" fill="#1ED5FD"/>
<path opacity="0.3" d="M401.658 16.9155C401.658 18.337 400.413 19.5808 398.991 19.5808C397.569 19.5808 396.324 18.337 396.324 16.9155C396.324 15.494 397.569 14.2501 398.991 14.2501C400.591 14.2501 401.658 15.494 401.658 16.9155Z" fill="#1ED5FD"/>
<path d="M400.768 16.9155C400.768 17.9816 399.879 18.6924 398.99 18.6924C397.923 18.6924 397.212 17.9816 397.212 16.9155C397.212 15.8494 398.101 15.1386 398.99 15.1386C400.057 15.1386 400.768 15.8494 400.768 16.9155Z" fill="#1ED5FD"/>
<defs>
<radialGradient id="paint0_radial_142_1242" cx="0" cy="0" r="1" gradientUnits="userSpaceOnUse" gradientTransform="translate(297.464 348.018) scale(242.747 242.603)">
<stop stop-color="#48E7F5"/>
<stop offset="1" stop-color="#0D1956"/>
</radialGradient>
<linearGradient id="paint1_linear_142_1242" x1="294.753" y1="259.509" x2="294.753" y2="472.689" gradientUnits="userSpaceOnUse">
<stop stop-color="#009EFF"/>
<stop offset="1" stop-color="#0004A3"/>
</linearGradient>
<radialGradient id="paint2_radial_142_1242" cx="0" cy="0" r="1" gradientUnits="userSpaceOnUse" gradientTransform="translate(290.793 163.398) scale(142.411 142.326)">
<stop offset="0.4759" stop-color="#57DCFD"/>
<stop offset="0.6906" stop-color="#55DBFC"/>
<stop offset="0.7834" stop-color="#4ED8FB"/>
<stop offset="0.8527" stop-color="#41D3F7"/>
<stop offset="0.9104" stop-color="#2FCCF3"/>
<stop offset="0.9603" stop-color="#19C3ED"/>
<stop offset="1" stop-color="#00B9E7"/>
</radialGradient>
<linearGradient id="paint3_linear_142_1242" x1="294.754" y1="265.981" x2="294.754" y2="399.824" gradientUnits="userSpaceOnUse">
<stop stop-color="#36308B"/>
<stop offset="1" stop-color="#221E58"/>
</linearGradient>
<linearGradient id="paint4_linear_142_1242" x1="294.753" y1="385.381" x2="294.753" y2="314.66" gradientUnits="userSpaceOnUse">
<stop stop-color="#221E58"/>
<stop offset="1" stop-color="#41D3F7"/>
</linearGradient>
<linearGradient id="paint5_linear_142_1242" x1="47.3791" y1="251.121" x2="47.3791" y2="363.956" gradientUnits="userSpaceOnUse">
<stop stop-color="white" stop-opacity="0"/>
<stop offset="1" stop-color="#4CE9F4"/>
</linearGradient>
<linearGradient id="paint6_linear_142_1242" x1="36.6293" y1="307.139" x2="36.6293" y2="271.954" gradientUnits="userSpaceOnUse">
<stop stop-color="white" stop-opacity="0"/>
<stop offset="1" stop-color="#48D7F4"/>
</linearGradient>
<linearGradient id="paint7_linear_142_1242" x1="59.3352" y1="301.663" x2="59.3352" y2="266.479" gradientUnits="userSpaceOnUse">
<stop stop-color="white" stop-opacity="0"/>
<stop offset="1" stop-color="#48D7F4"/>
</linearGradient>
<linearGradient id="paint8_linear_142_1242" x1="49.3766" y1="306.862" x2="49.3766" y2="276.657" gradientUnits="userSpaceOnUse">
<stop stop-color="white" stop-opacity="0"/>
<stop offset="1" stop-color="#48D7F4"/>
</linearGradient>
<linearGradient id="paint9_linear_142_1242" x1="33.7417" y1="281.393" x2="33.7417" y2="251.189" gradientUnits="userSpaceOnUse">
<stop stop-color="white" stop-opacity="0"/>
<stop offset="1" stop-color="#48D7F4"/>
</linearGradient>
<linearGradient id="paint10_linear_142_1242" x1="51.4945" y1="277.626" x2="51.4945" y2="247.232" gradientUnits="userSpaceOnUse">
<stop stop-color="white" stop-opacity="0"/>
<stop offset="1" stop-color="#48D7F4"/>
</linearGradient>
<linearGradient id="paint11_linear_142_1242" x1="42.8487" y1="311.594" x2="42.8487" y2="281.201" gradientUnits="userSpaceOnUse">
<stop stop-color="white" stop-opacity="0"/>
<stop offset="1" stop-color="#48D7F4"/>
</linearGradient>
<linearGradient id="paint12_linear_142_1242" x1="47.227" y1="366.467" x2="47.227" y2="323.824" gradientUnits="userSpaceOnUse">
<stop stop-color="#1ED5FD"/>
<stop offset="1"/>
</linearGradient>
<linearGradient id="paint13_linear_142_1242" x1="47.2269" y1="366.04" x2="47.2269" y2="325.787" gradientUnits="userSpaceOnUse">
<stop stop-color="white"/>
<stop offset="1"/>
</linearGradient>
<linearGradient id="paint14_linear_142_1242" x1="297.375" y1="388.686" x2="297.375" y2="501.521" gradientUnits="userSpaceOnUse">
<stop stop-color="white" stop-opacity="0"/>
<stop offset="1" stop-color="#4CE9F4"/>
</linearGradient>
<linearGradient id="paint15_linear_142_1242" x1="286.625" y1="444.704" x2="286.625" y2="409.518" gradientUnits="userSpaceOnUse">
<stop stop-color="white" stop-opacity="0"/>
<stop offset="1" stop-color="#48D7F4"/>
</linearGradient>
<linearGradient id="paint16_linear_142_1242" x1="309.331" y1="439.228" x2="309.331" y2="404.043" gradientUnits="userSpaceOnUse">
<stop stop-color="white" stop-opacity="0"/>
<stop offset="1" stop-color="#48D7F4"/>
</linearGradient>
<linearGradient id="paint17_linear_142_1242" x1="299.373" y1="444.426" x2="299.373" y2="414.222" gradientUnits="userSpaceOnUse">
<stop stop-color="white" stop-opacity="0"/>
<stop offset="1" stop-color="#48D7F4"/>
</linearGradient>
<linearGradient id="paint18_linear_142_1242" x1="283.738" y1="418.958" x2="283.738" y2="388.754" gradientUnits="userSpaceOnUse">
<stop stop-color="white" stop-opacity="0"/>
<stop offset="1" stop-color="#48D7F4"/>
</linearGradient>
<linearGradient id="paint19_linear_142_1242" x1="301.491" y1="415.19" x2="301.491" y2="384.797" gradientUnits="userSpaceOnUse">
<stop stop-color="white" stop-opacity="0"/>
<stop offset="1" stop-color="#48D7F4"/>
</linearGradient>
<linearGradient id="paint20_linear_142_1242" x1="292.846" y1="449.158" x2="292.846" y2="418.765" gradientUnits="userSpaceOnUse">
<stop stop-color="white" stop-opacity="0"/>
<stop offset="1" stop-color="#48D7F4"/>
</linearGradient>
<linearGradient id="paint21_linear_142_1242" x1="297.223" y1="504.032" x2="297.223" y2="461.389" gradientUnits="userSpaceOnUse">
<stop stop-color="#1ED5FD"/>
<stop offset="1"/>
</linearGradient>
<linearGradient id="paint22_linear_142_1242" x1="297.223" y1="503.605" x2="297.223" y2="463.352" gradientUnits="userSpaceOnUse">
<stop stop-color="white"/>
<stop offset="1"/>
</linearGradient>
<linearGradient id="paint23_linear_142_1242" x1="542.644" y1="250.257" x2="542.644" y2="363.092" gradientUnits="userSpaceOnUse">
<stop stop-color="white" stop-opacity="0"/>
<stop offset="1" stop-color="#4CE9F4"/>
</linearGradient>
<linearGradient id="paint24_linear_142_1242" x1="531.894" y1="306.275" x2="531.894" y2="271.09" gradientUnits="userSpaceOnUse">
<stop stop-color="white" stop-opacity="0"/>
<stop offset="1" stop-color="#48D7F4"/>
</linearGradient>
<linearGradient id="paint25_linear_142_1242" x1="554.6" y1="300.799" x2="554.6" y2="265.615" gradientUnits="userSpaceOnUse">
<stop stop-color="white" stop-opacity="0"/>
<stop offset="1" stop-color="#48D7F4"/>
</linearGradient>
<linearGradient id="paint26_linear_142_1242" x1="544.641" y1="305.998" x2="544.641" y2="275.794" gradientUnits="userSpaceOnUse">
<stop stop-color="white" stop-opacity="0"/>
<stop offset="1" stop-color="#48D7F4"/>
</linearGradient>
<linearGradient id="paint27_linear_142_1242" x1="529.006" y1="280.529" x2="529.006" y2="250.325" gradientUnits="userSpaceOnUse">
<stop stop-color="white" stop-opacity="0"/>
<stop offset="1" stop-color="#48D7F4"/>
</linearGradient>
<linearGradient id="paint28_linear_142_1242" x1="546.759" y1="276.762" x2="546.759" y2="246.369" gradientUnits="userSpaceOnUse">
<stop stop-color="white" stop-opacity="0"/>
<stop offset="1" stop-color="#48D7F4"/>
</linearGradient>
<linearGradient id="paint29_linear_142_1242" x1="538.113" y1="310.73" x2="538.113" y2="280.337" gradientUnits="userSpaceOnUse">
<stop stop-color="white" stop-opacity="0"/>
<stop offset="1" stop-color="#48D7F4"/>
</linearGradient>
<linearGradient id="paint30_linear_142_1242" x1="542.492" y1="365.604" x2="542.492" y2="322.96" gradientUnits="userSpaceOnUse">
<stop stop-color="#1ED5FD"/>
<stop offset="1"/>
</linearGradient>
<linearGradient id="paint31_linear_142_1242" x1="542.492" y1="365.176" x2="542.492" y2="324.923" gradientUnits="userSpaceOnUse">
<stop stop-color="white"/>
<stop offset="1"/>
</linearGradient>
<clipPath id="clip0_142_1242">
<rect width="182.532" height="182.532" fill="white" transform="translate(199.523 71.6093)"/>
</clipPath>
</defs>
</svg>
